<?xml version="1.0" encoding="utf-8"?>
<!-- Generator: Adobe Illustrator 15.0.2, SVG Export Plug-In . SVG Version: 6.00 Build 0)  -->
<!DOCTYPE svg PUBLIC "-//W3C//DTD SVG 1.1//EN" "http://www.w3.org/Graphics/SVG/1.1/DTD/svg11.dtd">
<svg version="1.1" id="Layer_1" xmlns="http://www.w3.org/2000/svg" xmlns:xlink="http://www.w3.org/1999/xlink" x="0px" y="0px"
	 width="500px" height="500px" viewBox="0 0 500 500" enable-background="new 0 0 500 500" xml:space="preserve">
<path fill="#FFFFFF" d="M250,472.77c123.033,0,222.769-99.736,222.769-222.77c0-123.032-99.736-222.77-222.769-222.77
	C126.968,27.23,27.231,126.968,27.231,250C27.231,373.033,126.968,472.77,250,472.77"/>
<g>
	<g>
		<g>
			<g>
				<g>
					<defs>
						<path id="SVGID_1_" d="M44.964,248.872c0,8.875,0.627,17.601,1.721,26.181h406.626c1.1-8.58,1.724-17.307,1.724-26.181
							c0-113.235-91.8-205.031-205.035-205.031C136.763,43.84,44.964,135.637,44.964,248.872"/>
					</defs>
					<clipPath id="SVGID_2_">
						<use xlink:href="#SVGID_1_"  overflow="visible"/>
					</clipPath>
					
						<radialGradient id="SVGID_3_" cx="7.4297" cy="495.9453" r="2.4331" gradientTransform="matrix(84.24 0 0 -84.24 -375.87 42027.2422)" gradientUnits="userSpaceOnUse">
						<stop  offset="0" style="stop-color:#FFFFFF"/>
						<stop  offset="0.2458" style="stop-color:#F9F9F9"/>
						<stop  offset="0.5004" style="stop-color:#EEEEEF"/>
						<stop  offset="0.7581" style="stop-color:#DDDEDF"/>
						<stop  offset="1" style="stop-color:#C7C8CA"/>
					</radialGradient>
					<rect x="44.964" y="43.84" clip-path="url(#SVGID_2_)" fill="url(#SVGID_3_)" width="410.071" height="231.212"/>
				</g>
			</g>
		</g>
	</g>
</g>
<path opacity="0.5" fill="#FFFFFF" enable-background="new    " d="M455.035,248.872c0-3.566-0.093-7.11-0.273-10.632
	l-125.594,4.801c72.982-9.754,114.762-15.319,124.493-16.581l0.129-0.017c-0.851-7.816-2.164-15.487-3.869-23.011L323.107,230.42
	c55.25-17.643,111.734-35.671,123.333-39.329l0.264-0.084c-2.209-7.518-4.791-14.876-7.808-22.008l-116.572,47.37
	c53.186-27.698,101.022-52.595,111.187-57.839l0.443-0.229c-3.455-7.012-7.322-13.785-11.531-20.315l-110.962,69.104
	c48.883-37.743,93.584-72.24,103.02-79.466l0.539-0.412c-4.637-6.281-9.637-12.271-14.943-17.975l-94.672,85.463
	c38.514-42.154,77.432-84.729,85.579-93.581l0.509-0.553c-5.641-5.384-11.566-10.469-17.791-15.186l-79.115,101.208
	c40.67-63.956,63.188-99.325,68.495-107.606l0.507-0.795c-6.473-4.318-13.222-8.245-20.188-11.818l-61.639,115.676
	c29.018-70.685,45.621-111.079,49.469-120.337l0.387-0.938c-7.125-3.094-14.447-5.803-21.963-8.085l-39.638,122.625
	c12.278-56.123,24.743-113.051,27.359-124.813l0.228-1.042c-7.527-1.79-15.209-3.163-23.034-4.099l-18.038,129.312
	c2.961-75.765,4.67-119.176,5.112-129.341l0.05-1.132c-3.874-0.219-7.77-0.354-11.695-0.354c-3.937,0-7.839,0.138-11.718,0.355
	l4.829,127.583c-8.59-63.16-15.611-114.767-17.061-125.409l-0.145-1.072c-7.644,0.899-15.155,2.219-22.519,3.931l29.018,134.963
	c-21.273-65.124-39.064-119.586-42.547-130.245l-0.336-1.025c-7.331,2.26-14.47,4.946-21.424,7.981l49.409,119.399
	c-23.464-44.585-43.631-82.894-53.734-102.088l-6.436-12.222c-6.817,3.462-13.416,7.28-19.771,11.455l70.899,112.809
	c-40.582-52.448-74.185-95.865-80.981-104.647l-0.557-0.719c-6.102,4.583-11.904,9.534-17.451,14.757l90.801,100.399
	c-50.016-45.219-91.622-82.833-99.875-90.292l-0.521-0.469c-5.184,5.569-10.077,11.41-14.62,17.531l106.75,82.592
	c-48.828-30.502-90.604-56.598-107.551-67.182l-6.852-4.283c-4.114,6.381-7.894,12.995-11.294,19.836l119.54,62.493
	c-53.82-21.593-99.836-40.048-118.149-47.395l-7.019-2.814c-2.91,6.984-5.412,14.176-7.547,21.524l123.782,38.955
	c-50.321-10.801-93.566-20.076-114.716-24.614l-12.099-2.595c-1.667,7.347-2.957,14.831-3.813,22.452l130.456,17.688
	c-63.739-2.45-116.777-4.484-130.199-5l-1.322-0.051c-0.173,3.46-0.265,6.945-0.265,10.451c0,4.143,0.149,8.251,0.407,12.328
	l130.224-4.982c-43.007,5.76-80.999,10.844-104.901,14.045l-8.745,1.172l0.241,3.615h86.04l33.01-6.971l-21.813,6.971h183.268
	l-14.554-4.582l21.322,4.582h87.655l0.24-3.615l-109.368-14.827c56.939,2.203,114.442,4.435,126.614,4.952
	C454.882,257.365,455.035,253.135,455.035,248.872z"/>
<path fill="#2484C6" d="M488.272,282.544h-8.058c1.496-10.64,2.287-21.499,2.287-32.544c0-128.203-104.3-232.504-232.502-232.504
	C121.796,17.496,17.495,121.797,17.495,250c0,11.045,0.791,21.904,2.289,32.544h-8.055c4.946,34.233,17.13,66.134,34.926,94.149
	h8.488C96.667,440.342,168.496,482.504,250,482.504c81.502,0,153.331-42.162,194.854-105.811h8.488
	C471.14,348.678,483.327,316.777,488.272,282.544z M36.966,250c0-117.468,95.566-213.033,213.034-213.033
	c117.465,0,213.031,95.565,213.031,213.033c0,11.06-0.849,21.93-2.485,32.544H39.45C37.817,271.93,36.966,261.06,36.966,250z
	 M250,463.032c-70.049,0-132.305-33.987-171.155-86.339h342.311C382.303,429.045,320.049,463.032,250,463.032z"/>
<path fill="#FFFFFF" d="M391.623,341.4h6.27v-21.803h0.073l7.188,21.803h4.782l7.47-21.803h0.079V341.4h6.265v-28.432h-9.438
	l-6.589,18.555h-0.079l-6.549-18.555h-9.475L391.623,341.4L391.623,341.4z M359.797,323.533c0.415-1.125,1.008-2.096,1.789-2.914
	c0.774-0.816,1.701-1.451,2.79-1.904c1.083-0.459,2.297-0.686,3.633-0.686c1.34,0,2.553,0.227,3.635,0.686
	c1.083,0.453,2.016,1.088,2.791,1.904c0.774,0.818,1.373,1.788,1.786,2.914c0.416,1.123,0.623,2.34,0.623,3.653
	c0,1.338-0.207,2.563-0.623,3.673c-0.413,1.112-1.012,2.078-1.786,2.892c-0.775,0.816-1.706,1.452-2.791,1.911
	c-1.082,0.453-2.295,0.682-3.635,0.682c-1.336,0-2.55-0.229-3.633-0.682c-1.088-0.459-2.016-1.094-2.79-1.911
	c-0.781-0.816-1.374-1.782-1.789-2.892c-0.42-1.111-0.625-2.335-0.625-3.673C359.174,325.873,359.381,324.656,359.797,323.533
	 M353.813,333.367c0.758,1.848,1.825,3.422,3.187,4.721c1.369,1.299,2.99,2.291,4.867,2.991c1.871,0.696,3.922,1.044,6.143,1.044
	c2.225,0,4.272-0.348,6.146-1.044c1.873-0.7,3.492-1.692,4.858-2.991c1.362-1.299,2.429-2.875,3.196-4.721
	c0.758-1.846,1.139-3.904,1.139-6.186c0-2.274-0.381-4.338-1.139-6.186c-0.768-1.845-1.834-3.416-3.196-4.716
	c-1.366-1.298-2.985-2.297-4.858-2.991c-1.873-0.699-3.922-1.043-6.146-1.043c-2.221,0-4.27,0.344-6.143,1.043
	c-1.877,0.694-3.496,1.693-4.867,2.991c-1.361,1.299-2.429,2.871-3.187,4.716c-0.765,1.848-1.148,3.911-1.148,6.186
	C352.668,329.463,353.048,331.523,353.813,333.367 M346.082,316.422c-0.616-0.777-1.311-1.432-2.088-1.962
	c-0.778-0.542-1.591-0.966-2.432-1.287c-0.838-0.321-1.699-0.556-2.566-0.703c-0.873-0.148-1.705-0.222-2.51-0.222
	c-2.225,0-4.275,0.343-6.148,1.043c-1.873,0.695-3.494,1.693-4.857,2.991c-1.363,1.3-2.43,2.871-3.197,4.716
	c-0.756,1.847-1.141,3.909-1.141,6.186c0,2.277,0.385,4.34,1.141,6.186c0.766,1.846,1.834,3.42,3.197,4.719s2.984,2.293,4.857,2.991
	c1.873,0.696,3.926,1.044,6.148,1.044c1.953,0,3.855-0.4,5.701-1.205c1.849-0.802,3.371-2.044,4.576-3.734l-5.219-3.898
	c-0.643,0.965-1.461,1.713-2.447,2.25c-0.993,0.535-2.127,0.803-3.416,0.803c-1.123,0-2.176-0.229-3.154-0.681
	c-0.975-0.458-1.827-1.093-2.549-1.912c-0.722-0.815-1.294-1.78-1.707-2.892c-0.416-1.109-0.625-2.336-0.625-3.674
	c0-1.312,0.209-2.527,0.625-3.65c0.413-1.126,0.989-2.096,1.723-2.916c0.736-0.818,1.606-1.45,2.608-1.904
	c1.009-0.459,2.098-0.686,3.276-0.686c1.181,0,2.217,0.203,3.115,0.604c0.895,0.402,1.651,0.977,2.267,1.727L346.082,316.422z
	 M306.402,339.396c0.186,0.451,0.448,0.846,0.787,1.182c0.336,0.336,0.726,0.598,1.184,0.786c0.457,0.185,0.935,0.279,1.445,0.279
	c0.508,0,0.994-0.095,1.446-0.279c0.454-0.185,0.848-0.45,1.187-0.786c0.333-0.336,0.596-0.73,0.78-1.182
	c0.188-0.459,0.289-0.943,0.289-1.449c0-0.509-0.101-0.991-0.289-1.445c-0.183-0.456-0.447-0.85-0.78-1.186
	c-0.339-0.336-0.732-0.594-1.187-0.783c-0.452-0.186-0.938-0.279-1.446-0.279c-0.511,0-0.99,0.094-1.445,0.279
	c-0.458,0.187-0.848,0.447-1.184,0.783c-0.339,0.336-0.6,0.729-0.787,1.186c-0.184,0.458-0.279,0.937-0.279,1.445
	C306.123,338.453,306.217,338.938,306.402,339.396 M288.174,341.4h6.262v-12.127l10.686-16.305h-7.428l-6.386,10.644l-6.026-10.644
	h-7.793l10.689,16.305V341.4H288.174z M259.617,341.4h6.264v-22.889h8.116v-5.543h-22.493v5.543h8.113V341.4L259.617,341.4z
	 M238.134,341.4h6.266v-28.432h-6.266V341.4z M230.102,316.422c-0.616-0.777-1.313-1.432-2.089-1.962
	c-0.777-0.542-1.587-0.966-2.43-1.287c-0.842-0.321-1.699-0.556-2.571-0.703c-0.869-0.148-1.706-0.222-2.51-0.222
	c-2.222,0-4.269,0.343-6.144,1.043c-1.875,0.695-3.496,1.693-4.862,2.991c-1.365,1.3-2.428,2.871-3.192,4.716
	c-0.762,1.847-1.145,3.909-1.145,6.186c0,2.277,0.383,4.34,1.145,6.186c0.764,1.846,1.827,3.42,3.192,4.719s2.987,2.293,4.862,2.991
	c1.874,0.696,3.922,1.044,6.144,1.044c1.955,0,3.856-0.4,5.702-1.205c1.848-0.802,3.375-2.044,4.58-3.734l-5.221-3.898
	c-0.643,0.965-1.458,1.713-2.448,2.25c-0.992,0.535-2.129,0.803-3.415,0.803c-1.124,0-2.177-0.229-3.153-0.681
	c-0.978-0.458-1.829-1.093-2.551-1.912c-0.723-0.815-1.291-1.78-1.707-2.892c-0.417-1.109-0.624-2.336-0.624-3.674
	c0-1.312,0.207-2.527,0.624-3.65c0.416-1.126,0.99-2.096,1.726-2.916c0.739-0.818,1.607-1.45,2.612-1.904
	c1.001-0.459,2.095-0.686,3.274-0.686c1.177,0,2.213,0.203,3.11,0.604c0.897,0.402,1.655,0.977,2.271,1.727L230.102,316.422z
	 M183.636,318.27h3.212c0.589,0,1.204,0.036,1.846,0.102c0.643,0.068,1.227,0.222,1.749,0.463c0.523,0.239,0.948,0.58,1.285,1.025
	c0.337,0.438,0.502,1.026,0.502,1.746c0,0.671-0.127,1.227-0.381,1.667c-0.256,0.444-0.588,0.786-1.004,1.041
	c-0.418,0.259-0.883,0.435-1.404,0.544c-0.523,0.107-1.066,0.164-1.629,0.164h-4.177L183.636,318.27L183.636,318.27z M177.371,341.4
	h6.266v-11.083h4.58c1.498,0,2.89-0.143,4.175-0.423c1.286-0.281,2.398-0.754,3.334-1.424c0.937-0.672,1.673-1.567,2.207-2.691
	c0.536-1.123,0.802-2.515,0.802-4.178c0-1.683-0.286-3.082-0.861-4.195c-0.576-1.11-1.354-1.994-2.33-2.649
	c-0.979-0.657-2.122-1.118-3.435-1.387c-1.312-0.265-2.704-0.401-4.176-0.401H177.37L177.371,341.4L177.371,341.4z M145.543,323.533
	c0.417-1.125,1.011-2.096,1.79-2.914c0.778-0.816,1.708-1.451,2.79-1.904c1.086-0.459,2.296-0.686,3.636-0.686
	s2.549,0.227,3.635,0.686c1.082,0.453,2.013,1.088,2.79,1.904c0.777,0.818,1.372,1.788,1.788,2.914
	c0.414,1.123,0.624,2.34,0.624,3.653c0,1.338-0.21,2.563-0.624,3.673c-0.416,1.112-1.01,2.078-1.788,2.892
	c-0.777,0.817-1.708,1.452-2.79,1.911c-1.086,0.453-2.295,0.682-3.635,0.682c-1.341,0-2.55-0.229-3.636-0.682
	c-1.082-0.459-2.012-1.094-2.79-1.911c-0.778-0.816-1.371-1.782-1.79-2.892c-0.412-1.111-0.62-2.335-0.62-3.673
	C144.923,325.873,145.131,324.656,145.543,323.533 M139.562,333.367c0.762,1.848,1.827,3.422,3.193,4.721s2.983,2.291,4.859,2.991
	c1.875,0.696,3.92,1.044,6.146,1.044c2.223,0,4.269-0.348,6.145-1.044c1.873-0.7,3.495-1.692,4.859-2.991
	c1.366-1.299,2.43-2.875,3.191-4.721c0.765-1.846,1.148-3.904,1.148-6.186c0-2.274-0.383-4.338-1.148-6.186
	c-0.761-1.845-1.826-3.416-3.191-4.716c-1.365-1.298-2.987-2.297-4.859-2.991c-1.875-0.699-3.922-1.043-6.145-1.043
	c-2.226,0-4.271,0.344-6.146,1.043c-1.875,0.694-3.493,1.693-4.859,2.991c-1.366,1.299-2.431,2.871-3.193,4.716
	c-0.765,1.848-1.144,3.911-1.144,6.186C138.417,329.463,138.796,331.523,139.562,333.367 M105.445,341.4h6.265v-12.288h12.17V341.4
	h6.266v-28.432h-6.266v10.604h-12.17v-10.604h-6.265V341.4z M96.733,315.217c-1.205-1.072-2.56-1.834-4.055-2.287
	c-1.502-0.457-3.053-0.682-4.66-0.682c-1.395,0-2.745,0.193-4.058,0.581c-1.312,0.389-2.47,0.971-3.474,1.749
	c-1.005,0.775-1.807,1.738-2.409,2.889c-0.604,1.152-0.903,2.49-0.903,4.016c0,1.584,0.326,2.854,0.982,3.82
	c0.654,0.961,1.478,1.738,2.471,2.328c0.988,0.588,2.061,1.056,3.213,1.4c1.149,0.35,2.22,0.697,3.213,1.048
	c0.988,0.347,1.812,0.767,2.467,1.263c0.657,0.497,0.987,1.172,0.987,2.029c0,0.51-0.129,0.951-0.383,1.326
	c-0.256,0.375-0.588,0.683-1.005,0.921c-0.414,0.243-0.884,0.425-1.404,0.546c-0.525,0.119-1.041,0.182-1.546,0.182
	c-1.044,0-2.057-0.234-3.033-0.705c-0.979-0.465-1.788-1.131-2.429-1.986l-4.458,4.898c1.366,1.262,2.838,2.17,4.417,2.73
	c1.578,0.563,3.292,0.843,5.139,0.843c1.473,0,2.873-0.186,4.196-0.562c1.327-0.378,2.49-0.95,3.496-1.726
	c1.002-0.777,1.798-1.756,2.389-2.93c0.585-1.18,0.883-2.557,0.883-4.139c0-1.659-0.322-2.986-0.963-3.979
	c-0.641-0.99-1.452-1.775-2.431-2.366c-0.977-0.589-2.028-1.045-3.153-1.368c-1.124-0.318-2.176-0.64-3.153-0.959
	c-0.978-0.32-1.786-0.709-2.429-1.168c-0.643-0.455-0.962-1.109-0.962-1.964c0-0.536,0.13-0.991,0.4-1.366
	c0.266-0.373,0.614-0.673,1.045-0.908c0.425-0.223,0.882-0.39,1.365-0.501c0.481-0.106,0.948-0.159,1.402-0.159
	c0.778,0,1.599,0.152,2.471,0.466c0.87,0.304,1.558,0.778,2.069,1.426L96.733,315.217z"/>
<path fill="#2484C6" d="M240.699,407.498c0-2.593,0.905-4.791,2.708-6.594c1.807-1.805,4.001-2.709,6.594-2.709
	c2.587,0,4.808,0.904,6.664,2.709c1.849,1.801,2.775,4.002,2.775,6.594s-0.927,4.811-2.775,6.658
	c-1.856,1.854-4.075,2.778-6.664,2.778c-2.593,0-4.788-0.925-6.594-2.778C241.602,412.309,240.699,410.088,240.699,407.498
	 M232.65,407.358c0,3.052,0.626,6.5,1.874,10.339c1.25,3.84,2.637,7.242,4.164,10.204c1.528,2.962,3.286,5.966,5.273,9.021
	c1.993,3.049,3.379,5.112,4.165,6.178c0.787,1.063,1.409,1.872,1.875,2.429l4.302-5.829c2.961-3.981,5.875-9.14,8.748-15.477
	c2.867-6.337,4.305-11.957,4.305-16.865c0-4.81-1.69-8.902-5.07-12.284c-3.38-3.375-7.475-5.068-12.282-5.068
	c-4.812,0-8.907,1.691-12.284,5.068C234.336,398.456,232.65,402.547,232.65,407.358"/>
<polygon fill="#B8C3CE" points="128.049,98.481 128.049,225.376 121.479,218.809 121.479,202.982 109.875,202.982 109.875,207.203 
	94.4,191.727 60.759,225.376 60.759,275.051 83.572,275.051 105.233,275.051 128.049,275.051 153.107,275.051 176.888,275.051 
	201.863,275.051 201.863,98.481 "/>
<rect x="136.896" y="108.104" fill="#FFFFFF" width="14.554" height="14.55"/>
<rect x="136.896" y="128.099" fill="#FFFFFF" width="14.554" height="14.551"/>
<rect x="136.896" y="148.091" fill="#FFFFFF" width="14.554" height="14.551"/>
<rect x="136.896" y="168.082" fill="#FFFFFF" width="14.554" height="14.545"/>
<rect x="136.896" y="188.071" fill="#FFFFFF" width="14.554" height="14.554"/>
<rect x="136.896" y="208.068" fill="#FFFFFF" width="14.554" height="14.547"/>
<rect x="136.896" y="228.056" fill="#FFFFFF" width="14.554" height="14.547"/>
<rect x="157.68" y="108.104" fill="#FFFFFF" width="14.553" height="14.55"/>
<rect x="157.68" y="128.099" fill="#FFFFFF" width="14.553" height="14.551"/>
<rect x="157.68" y="148.091" fill="#FFFFFF" width="14.553" height="14.551"/>
<rect x="157.68" y="168.082" fill="#FFFFFF" width="14.553" height="14.545"/>
<rect x="157.68" y="188.071" fill="#FFFFFF" width="14.553" height="14.554"/>
<rect x="157.68" y="208.068" fill="#FFFFFF" width="14.553" height="14.547"/>
<rect x="178.464" y="108.104" fill="#FFFFFF" width="14.556" height="14.55"/>
<rect x="178.464" y="128.099" fill="#FFFFFF" width="14.556" height="14.551"/>
<rect x="178.464" y="148.091" fill="#FFFFFF" width="14.556" height="14.551"/>
<rect x="178.464" y="168.082" fill="#FFFFFF" width="14.556" height="14.545"/>
<rect x="178.464" y="188.071" fill="#FFFFFF" width="14.556" height="14.554"/>
<rect x="178.464" y="208.068" fill="#FFFFFF" width="14.556" height="14.547"/>
<rect x="178.464" y="228.056" fill="#FFFFFF" width="14.556" height="14.547"/>
<polygon fill="#B8C3CE" points="439.241,218.472 413.862,218.472 413.862,209.344 318.103,209.344 318.103,218.472 293.037,218.472 
	293.037,275.051 356.202,275.051 376.072,275.051 439.241,275.051 "/>
<rect x="301.921" y="227.388" fill="#FFFFFF" width="12.146" height="12.147"/>
<rect x="383.631" y="227.388" fill="#FFFFFF" width="12.15" height="12.147"/>
<rect x="301.921" y="244.079" fill="#FFFFFF" width="12.146" height="12.146"/>
<rect x="383.631" y="244.079" fill="#FFFFFF" width="12.15" height="12.146"/>
<rect x="319.268" y="227.388" fill="#FFFFFF" width="12.152" height="12.147"/>
<rect x="400.987" y="227.388" fill="#FFFFFF" width="12.145" height="12.147"/>
<rect x="319.268" y="244.079" fill="#FFFFFF" width="12.152" height="12.146"/>
<rect x="400.987" y="244.079" fill="#FFFFFF" width="12.145" height="12.146"/>
<rect x="336.625" y="227.388" fill="#FFFFFF" width="12.147" height="12.147"/>
<rect x="418.338" y="227.388" fill="#FFFFFF" width="12.146" height="12.147"/>
<rect x="336.625" y="244.079" fill="#FFFFFF" width="12.147" height="12.146"/>
<rect x="418.338" y="244.079" fill="#FFFFFF" width="12.146" height="12.146"/>
<path fill="#FFFFFF" d="M235.128,275.053h1.357v-0.683v-0.807v-63.146c0,0,0-6.148-6.152-6.148h-25.088c0,0-6.147,0-6.147,6.148
	V273.4v0.97v0.683h1.232h1.171h31.889H235.128z"/>
<path fill="#2484C6" d="M315.248,132.356h-19.422c-2.749-6.625-22.199-11.76-45.829-11.76c-23.625,0-43.076,5.137-45.826,11.76
	h-19.42c0,0-7.147,0-7.147,6.388v124.511v5.412v6.386h7.147h4.625h9.721v-0.683v-0.564v-63.389c0-6.148,6.147-6.148,6.147-6.148
	h25.088c6.152,0,6.152,6.148,6.152,6.148v62.985v0.968v0.683h74.14h4.623h7.148v-6.386v-5.412V138.744
	C322.396,138.744,322.396,132.356,315.248,132.356z"/>
<path fill="#C1CCD9" d="M264.128,204.269c0,0-6.149,0-6.149,6.148v25.091c0,0,0,6.149,6.149,6.149h30.622c0,0,6.148,0,6.148-6.149
	v-25.091c0,0,0-6.148-6.148-6.148H264.128z"/>
<path fill="#2484C6" d="M228.897,249.147c2.066,0,3.744-1.677,3.744-3.746c0-2.067-1.678-3.745-3.744-3.745
	c-2.069,0-3.747,1.678-3.747,3.745C225.149,247.472,226.827,249.147,228.897,249.147"/>
<rect x="202.939" y="208.37" fill="#C1CCD9" width="29.701" height="29.702"/>
<path fill="#FFFFFF" d="M272.004,237.557c-0.348,0-0.7-0.132-0.969-0.398l-8.504-8.507c-0.535-0.533-0.535-1.398,0-1.932
	c0.535-0.532,1.396-0.532,1.929,0l8.509,8.507c0.534,0.532,0.534,1.398,0,1.933C272.701,237.425,272.353,237.557,272.004,237.557"/>
<path fill="#FFFFFF" d="M294.018,224.715c-0.352,0-0.7-0.134-0.965-0.399l-12.25-12.249c-0.531-0.535-0.531-1.397,0-1.933
	c0.535-0.535,1.403-0.535,1.936,0l12.246,12.249c0.532,0.535,0.532,1.397,0,1.933C294.717,224.581,294.368,224.715,294.018,224.715"
	/>
<path fill="#FFFFFF" d="M295.387,215.861c-0.353,0-0.701-0.136-0.968-0.398l-4.757-4.761c-0.537-0.535-0.537-1.4,0-1.933
	c0.535-0.536,1.398-0.536,1.931,0l4.757,4.76c0.535,0.533,0.535,1.395,0,1.933C296.081,215.725,295.734,215.861,295.387,215.861"/>
<path fill="#FFFFFF" d="M322.424,150.588H177.627v26.079h12.375c0.001,8.075,5.373,14.623,11.998,14.623
	c6.629,0.001,12-6.548,12.001-14.623h24.014c0.001,8.075,5.374,14.623,12.002,14.623c6.627,0.001,11.995-6.548,11.997-14.623h24.019
	c0.002,8.075,5.372,14.623,11.997,14.623s11.997-6.548,11.998-14.623h12.396L322.424,150.588L322.424,150.588z"/>
<rect x="177.627" y="150.588" fill="#E2E5EA" width="144.797" height="26.079"/>
<path fill="#5B95CF" d="M334.027,176.664h-23.998c0,8.076,5.373,14.626,11.998,14.626
	C328.656,191.291,334.027,184.741,334.027,176.664"/>
<path fill="#5B95CF" d="M286.034,176.664h-24.002c0,8.076,5.374,14.626,11.999,14.626
	C280.658,191.291,286.034,184.741,286.034,176.664"/>
<path fill="#5B95CF" d="M238,176.664h-23.998c0,8.076,5.372,14.626,12,14.626C232.629,191.291,238,184.741,238,176.664"/>
<path fill="#5B95CF" d="M189.97,176.664h-23.997c0,8.076,5.371,14.626,12,14.626C184.601,191.291,189.97,184.741,189.97,176.664"/>
<path fill="#FFFFFF" d="M310.028,176.664h-23.994c0,8.076,5.369,14.626,11.997,14.626
	C304.656,191.29,310.028,184.741,310.028,176.664"/>
<path fill="#FFFFFF" d="M262.015,176.664h-23.999c0,8.076,5.373,14.626,12.002,14.626
	C256.645,191.291,262.015,184.741,262.015,176.664"/>
<path fill="#FFFFFF" d="M214.002,176.664h-23.999c0,8.076,5.372,14.626,11.998,14.626
	C208.63,191.291,214.002,184.741,214.002,176.664"/>
<polygon fill="#2484C6" points="334.02,176.664 334.02,176.661 322.357,149.618 301.025,149.618 309.957,176.664 "/>
<polygon fill="#2484C6" points="259.943,149.618 262.002,176.664 286.064,176.664 280.879,149.618 "/>
<polygon fill="#2484C6" points="165.98,176.664 177.643,149.618 198.976,149.618 190.044,176.664 "/>
<polygon fill="#2484C6" points="240.057,149.618 237.998,176.664 213.936,176.664 219.122,149.618 "/>
<path fill="#FFFFFF" d="M249.999,17.496c128.203,0,232.502,104.301,232.502,232.504c0,11.045-0.79,21.904-2.287,32.544h8.059
	c-4.946,34.233-17.133,66.134-34.93,94.149h-8.489C403.33,440.342,331.501,482.504,250,482.504
	c-81.504,0-153.333-42.162-194.857-105.811h-8.488c-17.795-28.016-29.979-59.916-34.926-94.149h8.055
	c-1.498-10.64-2.289-21.499-2.289-32.544C17.495,121.797,121.795,17.496,249.999,17.496 M249.999,9.656
	C117.473,9.656,9.655,117.474,9.655,250c0,8.196,0.428,16.473,1.277,24.704H2.675l1.294,8.96
	c5.02,34.744,17.154,67.458,36.067,97.233l2.31,3.637h4.308h4.288c21.232,31.309,49.793,57.456,82.833,75.789
	c35.397,19.64,75.587,30.021,116.225,30.021c40.636,0,80.826-10.382,116.223-30.022c33.039-18.332,61.6-44.48,82.831-75.788h4.289
	h4.308l2.311-3.636c18.915-29.778,31.052-62.492,36.071-97.234l1.295-8.96h-8.262c0.849-8.23,1.276-16.506,1.276-24.704
	C490.342,117.474,382.524,9.656,249.999,9.656L249.999,9.656z"/>
</svg>
