<?xml version="1.0" encoding="UTF-8"?>
<svg version="1.1" viewBox="50 13 165 170" xml:space="preserve" xmlns="http://www.w3.org/2000/svg">

	<g fill="#2484C6">
		<path d="m122.44 42.332c-1.525 0.486-2.632 1.912-2.632 3.596 0 2.079 1.692 3.77 3.77 3.77h10.218c2.147 0 4.036 1.76 3.967 3.899-0.038 0.986-0.455 1.881-1.108 2.549-0.683 0.675-1.631 1.1-2.663 1.1h-40.245v0.061c-0.797 0.129-1.502 0.501-2.048 1.047-0.675 0.675-1.1 1.616-1.1 2.655 0 1.866 1.358 3.421 3.148 3.717v0.053h18.506c2.147 0 4.036 1.76 3.967 3.899-0.03 0.986-0.455 1.889-1.107 2.541-0.675 0.683-1.623 1.1-2.663 1.1h-7.618c-1.039 0-1.987 0.432-2.67 1.108-0.675 0.683-1.1 1.631-1.1 2.67 0 2.078 1.684 3.763 3.77 3.763h16.175c2.17 0 4.051 1.783 3.952 3.945-0.046 0.979-0.455 1.851-1.1 2.503-0.683 0.683-1.631 1.1-2.67 1.1h-44.68c-1.054 0-1.987 0.417-2.67 1.107-0.683 0.683-1.108 1.623-1.108 2.655 0 2.094 1.692 3.778 3.778 3.778h24.569v0.045c1.828 0.25 3.239 1.821 3.239 3.725 0 1.039-0.425 1.98-1.107 2.663-0.561 0.569-1.297 0.956-2.132 1.062v0.038h-17.758c-1.047 0-1.987 0.425-2.678 1.107-0.675 0.683-1.1 1.631-1.1 2.67 0 2.086 1.684 3.778 3.778 3.778h39.294c2.139 0 4.02 1.752 3.952 3.892-0.038 0.986-0.455 1.881-1.108 2.541-0.683 0.675-1.631 1.1-2.662 1.1h-11.356c-1.039 0-1.98 0.425-2.663 1.107-0.683 0.683-1.108 1.623-1.108 2.67 0 2.078 1.692 3.762 3.77 3.762h24.836c2.078 0 3.762 1.684 3.762 3.778 0 1.047-0.425 1.98-1.1 2.663-0.683 0.69-1.623 1.107-2.663 1.107h-10.772c-2.101 0-3.8 1.707-3.8 3.808 0 1.684 1.085 3.102 2.594 3.611h69.015l10.081-97.742h-80.952zm6.933 59.062c-0.683 0.683-1.623 1.1-2.67 1.1h-13.283c-2.086 0-3.778-1.692-3.778-3.762 0-1.039 0.425-1.98 1.115-2.67 0.683-0.675 1.616-1.107 2.662-1.107h13.283c2.086 0 3.77 1.692 3.77 3.778 1e-3 1.038-0.409 1.971-1.099 2.661zm6.82-30.16c-0.683 0.683-1.631 1.108-2.67 1.108h-9.952c-2.094 0-3.778-1.692-3.778-3.763 0-1.047 0.432-1.987 1.107-2.67 0.683-0.69 1.631-1.108 2.67-1.108h9.952c2.079 0 3.77 1.692 3.77 3.778 1e-3 1.031-0.424 1.979-1.099 2.655zm11.94-18.343c-0.516 0.485-1.214 0.774-1.972 0.774-1.616 0-2.921-1.305-2.921-2.913 0-0.114 8e-3 -0.228 0.023-0.341 0.167-1.449 1.396-2.579 2.898-2.579 1.608 0 2.913 1.305 2.913 2.921-1e-3 0.841-0.365 1.607-0.941 2.138zm40.712 0c-0.516 0.485-1.214 0.774-1.972 0.774-1.616 0-2.921-1.305-2.921-2.913 0-0.114 8e-3 -0.228 0.023-0.341 0.167-1.449 1.396-2.579 2.898-2.579 1.608 0 2.913 1.305 2.913 2.921 0 0.841-0.365 1.607-0.941 2.138z"/>
		<path d="m86.413 79.879h6.054c2.082 0 3.77-1.688 3.77-3.769 0-2.082-1.688-3.769-3.77-3.769h-6.054c-2.082 0-3.769 1.688-3.769 3.769 0 2.082 1.688 3.769 3.769 3.769z"/>
		<path d="m104.8 49.725h6.054c2.083 0 3.77-1.687 3.77-3.77 0-1.683-1.103-3.111-2.629-3.596h-8.335c-1.526 0.485-2.629 1.912-2.629 3.596-1e-3 2.084 1.686 3.77 3.769 3.77z"/>
		<path d="m98.77 117.55h-6.054c-2.082 0-3.769 1.688-3.769 3.769 0 2.082 1.688 3.769 3.769 3.769h6.054c2.082 0 3.77-1.688 3.77-3.769 0-2.082-1.688-3.769-3.77-3.769z"/>
		<path d="m114.02 132.73h-5.886c-2.024 0-3.665 1.641-3.665 3.665s1.641 3.665 3.665 3.665h5.886c2.024 0 3.665-1.641 3.665-3.665s-1.641-3.665-3.665-3.665z"/>
	</g>
	
		<path d="m186.87 52.06c-1.042 0-1.891-0.848-1.891-1.89v-11.224c0-10.176-8.155-18.579-18.179-18.732l-0.286-2e-3c-10.182 0-18.466 8.284-18.466 18.466v11.492c0 1.042-0.848 1.89-1.891 1.89-1.042 0-1.891-0.848-1.891-1.89v-11.199c0-12.31 9.881-22.421 22.027-22.539l0.22-1e-3c12.267 0 22.247 9.98 22.247 22.247v11.492c0 1.042-0.848 1.89-1.89 1.89z" fill="#72370F"/>
	
	<polygon points="203.39 42.332 193.31 140.07 211.26 134.28" fill="#26699F"/>

<text transform="translate(52.518 172.09)" font-family="'Raleway-Regular'" font-size="35px" stroke="#000000" stroke-miterlimit="10">PowerShop</text>
</svg>
